<svg width="167" height="152" viewBox="0 0 167 152" fill="none" xmlns="http://www.w3.org/2000/svg">
<g filter="url(#filter0_i_177_2255)">
<mask id="mask0_177_2255" style="mask-type:luminance" maskUnits="userSpaceOnUse" x="0" y="-1" width="167" height="153">
<path d="M0 -0.000244141H166.972V152H0V-0.000244141Z" fill="white"/>
</mask>
<g mask="url(#mask0_177_2255)">
<path fillRule="evenodd" clipRule="evenodd" d="M57.6714 118.62L73.7428 139.511C75.2036 141.405 74.9475 144.09 73.1741 145.699L67.6463 150.714C66.6599 151.609 65.4713 152.008 64.1453 151.89C62.8165 151.768 61.725 151.162 60.9084 150.105L43.0905 127.04L57.6714 118.62ZM145.836 65.0077H162.204C164.821 65.0077 166.939 62.8705 166.934 60.2561C166.929 57.6364 164.794 55.5207 162.18 55.5207H145.812C143.192 55.5207 141.074 57.6607 141.079 60.275C141.085 62.892 143.219 65.0077 145.836 65.0077ZM126.407 21.9064L134.589 7.72979C135.899 5.46584 135.134 2.56044 132.87 1.24519C130.606 -0.0673633 127.695 0.698068 126.388 2.96741L118.202 17.1441C116.895 19.408 117.658 22.3134 119.925 23.6287C122.186 24.9412 125.097 24.1758 126.407 21.9064ZM145.343 38.8888L158.781 31.1293C161.064 29.8114 161.846 26.8952 160.528 24.6151C159.21 22.3323 156.293 21.5507 154.013 22.8686L140.575 30.628C138.295 31.946 137.513 34.8622 138.829 37.1423C140.147 39.4251 143.063 40.2067 145.343 38.8888ZM124.207 60.24L140.058 87.6958C143.036 92.8489 141.252 99.5033 136.098 102.479C131.288 105.258 125.175 103.888 121.96 99.506C104.414 96.8351 81.5615 99.7028 58.8358 108.562L36.9886 70.7188C56.0301 55.483 69.983 37.2177 76.4434 20.6882C74.174 15.6887 76.0391 9.64067 80.8877 6.84038C86.0409 3.8649 92.6926 5.64642 95.6681 10.8023L111.518 38.2581C111.971 37.9104 112.451 37.587 112.958 37.2932C119.081 33.7571 126.913 35.8567 130.449 41.9801C133.985 48.1063 131.889 55.9385 125.762 59.4745C125.256 59.7683 124.736 60.0217 124.207 60.24ZM53.3403 112.567L30.4474 72.9127L12.2496 83.4212C1.19128 89.8061 -2.63318 104.077 3.7517 115.138C10.1366 126.196 24.4075 130.021 35.4659 123.636L53.6664 113.127L53.3403 112.567Z" fill="url(#paint0_linear_177_2255)"/>
</g>
</g>
<defs>
<filter id="filter0_i_177_2255" x="0.659058" y="0.604004" width="166.275" height="153.376" filterUnits="userSpaceOnUse" color-interpolation-filters="sRGB">
<feFlood flood-opacity="0" result="BackgroundImageFix"/>
<feBlend mode="normal" in="SourceGraphic" in2="BackgroundImageFix" result="shape"/>
<feColorMatrix in="SourceAlpha" type="matrix" values="0 0 0 0 0 0 0 0 0 0 0 0 0 0 0 0 0 0 127 0" result="hardAlpha"/>
<feOffset dy="2.0699"/>
<feGaussianBlur stdDeviation="1.03495"/>
<feComposite in2="hardAlpha" operator="arithmetic" k2="-1" k3="1"/>
<feColorMatrix type="matrix" values="0 0 0 0 0 0 0 0 0 0 0 0 0 0 0 0 0 0 0.2 0"/>
<feBlend mode="normal" in2="shape" result="effect1_innerShadow_177_2255"/>
</filter>
<linearGradient id="paint0_linear_177_2255" x1="83.7965" y1="0.604004" x2="83.7965" y2="173.022" gradientUnits="userSpaceOnUse">
<stop stop-color="#CDF4AE"/>
<stop offset="1" stop-color="#4D873D"/>
</linearGradient>
</defs>
</svg>
