<svg width="114" height="157" viewBox="0 0 114 157" fill="none" xmlns="http://www.w3.org/2000/svg">
<g filter="url(#filter0_i_180_2746)">
<g filter="url(#filter1_i_180_2746)">
<path fill-rule="evenodd" clip-rule="evenodd" d="M3.97567 82.5495C3.69881 82.5495 3.42444 82.4572 3.14758 82.3649C1.67598 81.9035 0.84789 80.3396 1.30683 78.868L14.4665 37.3638C15.6637 33.4054 19.3452 30.7366 23.5779 30.7366H29.1925C30.7564 30.7366 31.9536 31.9338 31.9536 33.4977C31.9536 34.9693 30.7564 36.2588 29.1925 36.2588H23.5779C21.7372 36.2588 20.2656 37.3638 19.7119 39.02L6.55223 80.6165C6.18557 81.7214 5.17291 82.5495 3.97567 82.5495ZM109.809 82.4572C108.612 82.4572 107.599 81.7214 107.232 80.6165L94.0702 39.02C93.519 37.3638 92.0474 36.2588 90.2067 36.2588H84.5921C83.0282 36.2588 81.831 34.9693 81.831 33.4977C81.831 31.9338 83.0282 30.7366 84.5921 30.7366H90.2067C94.4394 30.7366 98.1209 33.4054 99.3181 37.3638L112.478 78.868C112.937 80.3396 112.109 81.9035 110.637 82.3649C110.36 82.4572 110.083 82.4572 109.809 82.4572Z" fill="url(#paint0_linear_180_2746)"/>
<mask id="mask0_180_2746" style="mask-type:luminance" maskUnits="userSpaceOnUse" x="0" y="68" width="114" height="89">
<path d="M0 68.9856H113.658V157H0V68.9856Z" fill="white"/>
</mask>
<g mask="url(#mask0_180_2746)">
<path fill-rule="evenodd" clip-rule="evenodd" d="M98.949 157H14.8356C6.92139 157 0.386475 150.557 0.386475 142.551V83.9286C0.386475 75.9221 6.92139 69.4795 14.8356 69.4795H98.949C106.863 69.4795 113.398 75.9221 113.398 83.9286V142.551C113.398 150.557 106.863 157 98.949 157ZM56.8911 142.92C55.1426 142.92 53.5787 142.274 52.3815 140.987L51.4636 140.159C46.0336 134.729 40.4191 129.114 35.8172 122.949C30.0206 115.219 27.2595 108.317 27.2595 101.598C27.2595 91.6583 35.3583 83.562 45.2953 83.562C49.8972 83.562 53.7633 84.9413 56.8911 87.7947C60.0213 84.9413 63.8874 83.562 68.4868 83.562C78.4264 83.562 86.5252 91.6583 86.5252 101.598C86.5252 108.317 83.7641 115.219 77.9674 122.949C73.3655 129.114 67.751 134.729 62.321 140.159L61.4007 140.987C60.2059 142.274 58.6395 142.92 56.8911 142.92Z" fill="url(#paint1_linear_180_2746)"/>
</g>
<mask id="mask1_180_2746" style="mask-type:luminance" maskUnits="userSpaceOnUse" x="26" y="0" width="62" height="62">
<path d="M26.1792 0H87.4777V61.3235H26.1792V0Z" fill="white"/>
</mask>
<g mask="url(#mask1_180_2746)">
<path fill-rule="evenodd" clip-rule="evenodd" d="M56.8916 61.1065C40.0505 61.1065 26.3396 47.3931 26.3396 30.552C26.3396 13.7109 40.0505 0 56.8916 0C73.7327 0 87.4461 13.7109 87.4461 30.552C87.4461 47.3931 73.7327 61.1065 56.8916 61.1065ZM56.8916 5.52226C43.0884 5.52226 31.8619 16.7488 31.8619 30.552C31.8619 44.3576 43.0884 55.5842 56.8916 55.5842C70.6972 55.5842 81.9238 44.3576 81.9238 30.552C81.9238 16.7488 70.6972 5.52226 56.8916 5.52226Z" fill="url(#paint2_linear_180_2746)"/>
</g>
<path fill-rule="evenodd" clip-rule="evenodd" d="M56.8912 48.6826C55.3273 48.6826 54.1326 47.393 54.1326 45.9214C54.1326 44.3575 55.3273 43.1603 56.8912 43.1603C63.7953 43.1603 69.4996 37.456 69.4996 30.5519C69.4996 28.988 70.6968 27.7908 72.2607 27.7908C73.7323 27.7908 75.0219 28.988 75.0219 30.5519C75.0219 40.4915 66.9231 48.6826 56.8912 48.6826Z" fill="url(#paint3_linear_180_2746)"/>
<path fill-rule="evenodd" clip-rule="evenodd" d="M84.8688 61.1067H28.9154C27.3515 61.1067 26.1543 59.9095 26.1543 58.3456C26.1543 56.874 27.3515 55.5845 28.9154 55.5845H84.8688C86.4327 55.5845 87.6299 56.874 87.6299 58.3456C87.6299 59.9095 86.4327 61.1067 84.8688 61.1067Z" fill="url(#paint4_linear_180_2746)"/>
</g>
</g>
<defs>
<filter id="filter0_i_180_2746" x="0.386475" y="0" width="113.012" height="161" filterUnits="userSpaceOnUse" color-interpolation-filters="sRGB">
<feFlood flood-opacity="0" result="BackgroundImageFix"/>
<feBlend mode="normal" in="SourceGraphic" in2="BackgroundImageFix" result="shape"/>
<feColorMatrix in="SourceAlpha" type="matrix" values="0 0 0 0 0 0 0 0 0 0 0 0 0 0 0 0 0 0 127 0" result="hardAlpha"/>
<feOffset dy="4"/>
<feGaussianBlur stdDeviation="2"/>
<feComposite in2="hardAlpha" operator="arithmetic" k2="-1" k3="1"/>
<feColorMatrix type="matrix" values="0 0 0 0 0 0 0 0 0 0 0 0 0 0 0 0 0 0 0.2 0"/>
<feBlend mode="normal" in2="shape" result="effect1_innerShadow_180_2746"/>
</filter>
<filter id="filter1_i_180_2746" x="0.386475" y="0" width="113.012" height="158.916" filterUnits="userSpaceOnUse" color-interpolation-filters="sRGB">
<feFlood flood-opacity="0" result="BackgroundImageFix"/>
<feBlend mode="normal" in="SourceGraphic" in2="BackgroundImageFix" result="shape"/>
<feColorMatrix in="SourceAlpha" type="matrix" values="0 0 0 0 0 0 0 0 0 0 0 0 0 0 0 0 0 0 127 0" result="hardAlpha"/>
<feOffset dy="1.91558"/>
<feGaussianBlur stdDeviation="0.95779"/>
<feComposite in2="hardAlpha" operator="arithmetic" k2="-1" k3="1"/>
<feColorMatrix type="matrix" values="0 0 0 0 0 0 0 0 0 0 0 0 0 0 0 0 0 0 0.2 0"/>
<feBlend mode="normal" in2="shape" result="effect1_innerShadow_180_2746"/>
</filter>
<linearGradient id="paint0_linear_180_2746" x1="56.8923" y1="30.7366" x2="56.8923" y2="89.7792" gradientUnits="userSpaceOnUse">
<stop stop-color="#CDF4AE"/>
<stop offset="1" stop-color="#4D873D"/>
</linearGradient>
<linearGradient id="paint1_linear_180_2746" x1="56.8923" y1="69.4795" x2="56.8923" y2="169.212" gradientUnits="userSpaceOnUse">
<stop stop-color="#CDF4AE"/>
<stop offset="1" stop-color="#4D873D"/>
</linearGradient>
<linearGradient id="paint2_linear_180_2746" x1="56.8928" y1="0" x2="56.8928" y2="69.633" gradientUnits="userSpaceOnUse">
<stop stop-color="#CDF4AE"/>
<stop offset="1" stop-color="#4D873D"/>
</linearGradient>
<linearGradient id="paint3_linear_180_2746" x1="64.5772" y1="27.7908" x2="64.5772" y2="51.5977" gradientUnits="userSpaceOnUse">
<stop stop-color="#CDF4AE"/>
<stop offset="1" stop-color="#4D873D"/>
</linearGradient>
<linearGradient id="paint4_linear_180_2746" x1="56.8921" y1="55.5845" x2="56.8921" y2="61.8773" gradientUnits="userSpaceOnUse">
<stop stop-color="#CDF4AE"/>
<stop offset="1" stop-color="#4D873D"/>
</linearGradient>
</defs>
</svg>
