<svg width="114" height="157" viewBox="0 0 114 157" fill="none" xmlns="http://www.w3.org/2000/svg">
<g filter="url(#filter0_i_180_2746)">
<g filter="url(#filter1_i_180_2746)">
<path fill-rule="evenodd" clip-rule="evenodd" d="M3.97518 82.5497C3.69832 82.5497 3.42396 82.4575 3.14709 82.3652C1.67549 81.9037 0.847402 80.3398 1.30634 78.8682L14.466 37.364C15.6632 33.4057 19.3447 30.7368 23.5774 30.7368H29.192C30.7559 30.7368 31.9531 31.9341 31.9531 33.4979C31.9531 34.9695 30.7559 36.2591 29.192 36.2591H23.5774C21.7367 36.2591 20.2651 37.364 19.7114 39.0202L6.55174 80.6167C6.18508 81.7216 5.17242 82.5497 3.97518 82.5497ZM109.808 82.4575C108.611 82.4575 107.599 81.7216 107.232 80.6167L94.0698 39.0202C93.5185 37.364 92.0469 36.2591 90.2062 36.2591H84.5916C83.0277 36.2591 81.8305 34.9695 81.8305 33.4979C81.8305 31.9341 83.0277 30.7368 84.5916 30.7368H90.2062C94.4389 30.7368 98.1204 33.4057 99.3176 37.364L112.477 78.8682C112.936 80.3398 112.108 81.9037 110.637 82.3652C110.36 82.4575 110.083 82.4575 109.808 82.4575Z" fill="url(#paint0_linear_180_2746)"/>
<mask id="mask0_180_2746" style="mask-type:luminance" maskUnits="userSpaceOnUse" x="0" y="68" width="114" height="89">
<path d="M0 68.9854H113.658V157H0V68.9854Z" fill="white"/>
</mask>
<g mask="url(#mask0_180_2746)">
<path fill-rule="evenodd" clip-rule="evenodd" d="M98.9492 157H14.8359C6.92164 157 0.386719 150.557 0.386719 142.551V83.9286C0.386719 75.9221 6.92164 69.4795 14.8359 69.4795H98.9492C106.863 69.4795 113.398 75.9221 113.398 83.9286V142.551C113.398 150.557 106.863 157 98.9492 157ZM56.8913 142.92C55.1428 142.92 53.579 142.274 52.3817 140.987L51.4638 140.159C46.0339 134.729 40.4193 129.114 35.8175 122.949C30.0208 115.219 27.2597 108.317 27.2597 101.598C27.2597 91.6583 35.3585 83.562 45.2956 83.562C49.8975 83.562 53.7635 84.9413 56.8913 87.7947C60.0216 84.9413 63.8877 83.562 68.4871 83.562C78.4266 83.562 86.5254 91.6583 86.5254 101.598C86.5254 108.317 83.7643 115.219 77.9677 122.949C73.3658 129.114 67.7513 134.729 62.3213 140.159L61.4009 140.987C60.2062 142.274 58.6398 142.92 56.8913 142.92Z" fill="url(#paint1_linear_180_2746)"/>
</g>
<mask id="mask1_180_2746" style="mask-type:luminance" maskUnits="userSpaceOnUse" x="26" y="0" width="62" height="62">
<path d="M26.1797 0H87.4782V61.3235H26.1797V0Z" fill="white"/>
</mask>
<g mask="url(#mask1_180_2746)">
<path fill-rule="evenodd" clip-rule="evenodd" d="M56.8918 61.1065C40.0507 61.1065 26.3398 47.3931 26.3398 30.552C26.3398 13.7109 40.0507 0 56.8918 0C73.733 0 87.4463 13.7109 87.4463 30.552C87.4463 47.3931 73.733 61.1065 56.8918 61.1065ZM56.8918 5.52226C43.0887 5.52226 31.8621 16.7488 31.8621 30.552C31.8621 44.3576 43.0887 55.5842 56.8918 55.5842C70.6975 55.5842 81.9241 44.3576 81.9241 30.552C81.9241 16.7488 70.6975 5.52226 56.8918 5.52226Z" fill="url(#paint2_linear_180_2746)"/>
</g>
<path fill-rule="evenodd" clip-rule="evenodd" d="M56.8914 48.6828C55.3276 48.6828 54.1328 47.3933 54.1328 45.9217C54.1328 44.3578 55.3276 43.1605 56.8914 43.1605C63.7955 43.1605 69.4998 37.4562 69.4998 30.5521C69.4998 28.9883 70.6971 27.791 72.261 27.791C73.7326 27.791 75.0221 28.9883 75.0221 30.5521C75.0221 40.4917 66.9233 48.6828 56.8914 48.6828Z" fill="url(#paint3_linear_180_2746)"/>
<path fill-rule="evenodd" clip-rule="evenodd" d="M84.8688 61.1067H28.9154C27.3515 61.1067 26.1543 59.9095 26.1543 58.3456C26.1543 56.874 27.3515 55.5845 28.9154 55.5845H84.8688C86.4327 55.5845 87.6299 56.874 87.6299 58.3456C87.6299 59.9095 86.4327 61.1067 84.8688 61.1067Z" fill="url(#paint4_linear_180_2746)"/>
</g>
</g>
<defs>
<filter id="filter0_i_180_2746" x="0.386719" y="0" width="113.012" height="161" filterUnits="userSpaceOnUse" color-interpolation-filters="sRGB">
<feFlood flood-opacity="0" result="BackgroundImageFix"/>
<feBlend mode="normal" in="SourceGraphic" in2="BackgroundImageFix" result="shape"/>
<feColorMatrix in="SourceAlpha" type="matrix" values="0 0 0 0 0 0 0 0 0 0 0 0 0 0 0 0 0 0 127 0" result="hardAlpha"/>
<feOffset dy="4"/>
<feGaussianBlur stdDeviation="2"/>
<feComposite in2="hardAlpha" operator="arithmetic" k2="-1" k3="1"/>
<feColorMatrix type="matrix" values="0 0 0 0 0 0 0 0 0 0 0 0 0 0 0 0 0 0 0.2 0"/>
<feBlend mode="normal" in2="shape" result="effect1_innerShadow_180_2746"/>
</filter>
<filter id="filter1_i_180_2746" x="0.386719" y="0" width="113.012" height="158.915" filterUnits="userSpaceOnUse" color-interpolation-filters="sRGB">
<feFlood flood-opacity="0" result="BackgroundImageFix"/>
<feBlend mode="normal" in="SourceGraphic" in2="BackgroundImageFix" result="shape"/>
<feColorMatrix in="SourceAlpha" type="matrix" values="0 0 0 0 0 0 0 0 0 0 0 0 0 0 0 0 0 0 127 0" result="hardAlpha"/>
<feOffset dy="1.91558"/>
<feGaussianBlur stdDeviation="0.95779"/>
<feComposite in2="hardAlpha" operator="arithmetic" k2="-1" k3="1"/>
<feColorMatrix type="matrix" values="0 0 0 0 0 0 0 0 0 0 0 0 0 0 0 0 0 0 0.2 0"/>
<feBlend mode="normal" in2="shape" result="effect1_innerShadow_180_2746"/>
</filter>
<linearGradient id="paint0_linear_180_2746" x1="56.8918" y1="30.7368" x2="56.8918" y2="89.7795" gradientUnits="userSpaceOnUse">
<stop stop-color="#CDF4AE"/>
<stop offset="1" stop-color="#4D873D"/>
</linearGradient>
<linearGradient id="paint1_linear_180_2746" x1="56.8926" y1="69.4795" x2="56.8926" y2="169.212" gradientUnits="userSpaceOnUse">
<stop stop-color="#CDF4AE"/>
<stop offset="1" stop-color="#4D873D"/>
</linearGradient>
<linearGradient id="paint2_linear_180_2746" x1="56.8931" y1="0" x2="56.8931" y2="69.633" gradientUnits="userSpaceOnUse">
<stop stop-color="#CDF4AE"/>
<stop offset="1" stop-color="#4D873D"/>
</linearGradient>
<linearGradient id="paint3_linear_180_2746" x1="64.5775" y1="27.791" x2="64.5775" y2="51.5979" gradientUnits="userSpaceOnUse">
<stop stop-color="#CDF4AE"/>
<stop offset="1" stop-color="#4D873D"/>
</linearGradient>
<linearGradient id="paint4_linear_180_2746" x1="56.8921" y1="55.5845" x2="56.8921" y2="61.8773" gradientUnits="userSpaceOnUse">
<stop stop-color="#CDF4AE"/>
<stop offset="1" stop-color="#4D873D"/>
</linearGradient>
</defs>
</svg>
