<svg width="422" height="392" viewBox="0 0 422 392" fill="none" xmlns="http://www.w3.org/2000/svg">
<g filter="url(#filter0_d_404_1160)">
<path d="M366.387 42.4387H202.603C198.668 42.4387 194.831 41.2387 191.6 38.9992L158.196 15.8506C154.966 13.6111 151.122 12.4111 147.194 12.4111H51.502C40.8347 12.4111 32.1836 21.0622 32.1836 31.7295V230.043H385.705V61.7641C385.705 51.0967 377.054 42.4457 366.387 42.4457V42.4387Z" fill="url(#paint0_linear_404_1160)"/>
<path d="M364.355 57.7598H53.1953V308.562H364.355V57.7598Z" fill="white"/>
<path d="M346.954 71.8105H70.6367V294.537H346.954V71.8105Z" fill="#65BEBD"/>
<path d="M70.6367 294.511V218.554L139.851 175.418L208.784 242.4L283.402 175.418L346.93 222.571V294.511H70.6367Z" fill="#678B42"/>
<path opacity="0.1" d="M174.191 226.215C163.595 235.331 162.021 253.751 165.851 266.343C169.868 279.594 179.055 288.734 190.99 294.537H256.962C250.384 291.271 244.205 287.394 238.73 282.578C231.095 275.812 225.456 267.025 224.187 256.734C223.553 251.542 223.553 246.35 224.07 241.252L222.754 242.426L198.085 218.438C189.745 219.872 180.511 220.788 174.191 226.215Z" fill="white"/>
<path opacity="0.1" d="M287.228 212.093C281.073 245.361 311.78 273.296 341.289 275.716V232.58L294.183 194.214C290.541 199.312 288.332 206.102 287.228 212.07V212.093Z" fill="white"/>
<g style="mix-blend-mode:multiply">
<path d="M294.091 263.781C285.68 256.075 279.501 245.808 277.809 234.413C276.423 225.039 276.916 215.312 278.749 206.032C280.464 197.316 283.847 187.378 289.509 179.93L283.401 175.396L211.156 240.24C210.357 246.795 210.474 253.42 211.931 259.811C214.421 270.689 221.611 279.335 230.609 285.655C235.519 289.108 240.735 291.975 246.139 294.488H346.93V284.315C327.852 282.859 308.117 276.609 294.067 263.758L294.091 263.781Z" fill="#D1D3D4"/>
</g>
<g style="mix-blend-mode:multiply">
<path d="M164.925 281.143C157.007 266.811 152.966 245.196 159.074 229.69C162.411 221.208 169.224 215.523 177.659 212.469C183.062 210.519 198.028 205.726 202.844 210.401L166.851 175.418L97.6367 218.554V294.534H175.474C171.339 290.681 167.72 286.241 164.925 281.143Z" fill="#D1D3D4"/>
</g>
<path d="M262.98 135.218C262.98 157.421 244.983 175.417 222.781 175.417C200.579 175.417 182.559 157.421 182.559 135.218C182.559 113.016 200.555 95.0195 222.781 95.0195C245.007 95.0195 262.98 113.016 262.98 135.218Z" fill="#F5CB63"/>
<g style="mix-blend-mode:multiply">
<path d="M242.469 162.754C224.919 162.754 210.681 148.516 210.681 130.966C210.681 113.416 223.979 100.141 240.731 99.2485C235.327 96.5467 229.242 95.0195 222.781 95.0195C200.579 95.0195 182.559 113.016 182.559 135.218C182.559 157.421 200.555 175.417 222.781 175.417C235.35 175.417 246.581 169.638 253.958 160.592C250.387 161.978 246.51 162.754 242.469 162.754Z" fill="#D1D3D4"/>
</g>
<path opacity="0.2" d="M256.961 130.45C256.961 142.878 248.291 152.934 237.602 152.934C226.912 152.934 218.266 142.855 218.266 130.45C218.266 118.045 226.935 107.966 237.602 107.966C248.268 107.966 256.961 118.045 256.961 130.45Z" fill="white"/>
<path d="M176.201 117.033C177.728 114.777 178.621 112.052 178.621 109.139C178.621 101.315 172.277 94.9951 164.453 94.9951C159.05 94.9951 154.351 98.0259 151.978 102.49C149.605 98.0259 144.906 94.9951 139.502 94.9951C131.679 94.9951 125.335 101.339 125.335 109.139C125.335 112.123 126.275 114.895 127.849 117.174C121.083 118.231 115.914 124.081 115.914 131.129C115.914 138.953 122.258 145.273 130.058 145.273C133.159 145.273 136.025 144.263 138.375 142.571C140.889 146.542 145.282 149.173 150.333 149.173C156.559 149.173 161.822 145.156 163.725 139.564C166.309 143.018 170.421 145.273 175.073 145.273C182.873 145.273 189.216 138.93 189.216 131.129C189.216 123.329 183.484 117.62 176.224 117.033H176.201Z" fill="white"/>
<path d="M311.064 129.228C312.873 126.55 313.907 123.331 313.907 119.854C313.907 110.574 306.388 103.056 297.108 103.056C290.694 103.056 285.126 106.65 282.307 111.937C279.487 106.65 273.896 103.056 267.505 103.056C258.225 103.056 250.707 110.574 250.707 119.854C250.707 123.402 251.811 126.668 253.667 129.369C245.656 130.638 239.5 137.569 239.5 145.933C239.5 155.213 247.018 162.731 256.298 162.731C259.987 162.731 263.37 161.533 266.143 159.513C269.126 164.211 274.342 167.336 280.333 167.336C287.71 167.336 293.96 162.567 296.215 155.941C299.27 160.053 304.156 162.731 309.678 162.731C318.958 162.731 326.476 155.213 326.476 145.933C326.476 136.653 319.686 129.91 311.064 129.205V129.228Z" fill="white"/>
<path d="M373.351 379.411H48.0776C35.4917 379.411 25.0825 369.616 24.322 357.051L12.4547 160.867C11.6245 147.186 22.5011 135.633 36.2103 135.633H385.211C398.92 135.633 409.79 147.186 408.967 160.867L397.099 357.051C396.339 369.616 385.93 379.411 373.344 379.411H373.351Z" fill="url(#paint1_linear_404_1160)"/>
</g>
<defs>
<filter id="filter0_d_404_1160" x="-0.000623226" y="0.000353336" width="421.423" height="391.822" filterUnits="userSpaceOnUse" color-interpolation-filters="sRGB">
<feFlood flood-opacity="0" result="BackgroundImageFix"/>
<feColorMatrix in="SourceAlpha" type="matrix" values="0 0 0 0 0 0 0 0 0 0 0 0 0 0 0 0 0 0 127 0" result="hardAlpha"/>
<feMorphology radius="3.54594" operator="dilate" in="SourceAlpha" result="effect1_dropShadow_404_1160"/>
<feOffset/>
<feGaussianBlur stdDeviation="4.43242"/>
<feComposite in2="hardAlpha" operator="out"/>
<feColorMatrix type="matrix" values="0 0 0 0 0 0 0 0 0 0 0 0 0 0 0 0 0 0 0.1 0"/>
<feBlend mode="normal" in2="BackgroundImageFix" result="effect1_dropShadow_404_1160"/>
<feBlend mode="normal" in="SourceGraphic" in2="effect1_dropShadow_404_1160" result="shape"/>
</filter>
<linearGradient id="paint0_linear_404_1160" x1="208.944" y1="12.4111" x2="208.944" y2="230.043" gradientUnits="userSpaceOnUse">
<stop stop-color="#CDF4AE"/>
<stop offset="0.663563" stop-color="#5A9B45"/>
<stop offset="0.971259" stop-color="#39612E"/>
</linearGradient>
<linearGradient id="paint1_linear_404_1160" x1="210.71" y1="135.633" x2="210.71" y2="379.411" gradientUnits="userSpaceOnUse">
<stop stop-color="#5A9B45"/>
<stop offset="1" stop-color="#39612E"/>
</linearGradient>
</defs>
</svg>
