<svg width="137" height="46" viewBox="0 0 137 46" fill="none" xmlns="http://www.w3.org/2000/svg">
<g filter="url(#filter0_di_116_51)">
<path d="M0.688019 44.0764V1.07481H9.46035V3.91291C12.8718 0.960137 21.7416 -3.17375 29.9291 3.91291C40.1635 12.7712 24.7689 31.4775 21.2428 35.0033C19.2647 36.9812 31.6492 37.4114 36.2934 31.4775C37.4687 35.3618 36.7062 43.3196 24.2529 44.0764C11.7996 44.8332 9.89652 30.5815 11.4384 22.7909C12.7835 15.1072 19.5925 10.8109 21.9308 10.1911C19.0354 14.5486 13.8981 24.9581 16.8566 27.091C20.5548 29.7571 24.8549 23.7796 26.747 19.7375C28.6391 15.6953 30.2003 8.74615 25.4569 6.23498C21.0708 3.91291 13.5025 3.13887 9.46035 12.5992C6.22663 20.1675 6.10622 39.2029 6.45023 44.0764H0.688019Z" fill="url(#paint0_linear_116_51)"/>
</g>
<g filter="url(#filter1_di_116_51)">
<path d="M55.9152 13.9052C55.8555 13.9202 55.766 14.0022 55.6466 14.1514C55.5421 14.3006 55.4675 14.4573 55.4228 14.6214C55.3482 14.8602 55.3706 15.0541 55.4899 15.2033C55.8033 15.5763 56.2061 16.0165 56.6985 16.5238C57.1909 17.0162 57.6833 17.4862 58.1756 17.9338C58.6829 18.3814 59.1156 18.7246 59.4737 18.9633C59.2052 19.6795 58.7799 20.254 58.198 20.6867C57.631 21.1044 56.9969 21.3059 56.2956 21.291C55.5944 21.276 54.908 20.9627 54.2366 20.351C54.1471 20.2614 53.9755 20.0675 53.7218 19.769C53.4682 19.4557 53.1772 19.0902 52.849 18.6724C52.5207 18.2546 52.1925 17.8368 51.8642 17.419C51.536 17.0013 51.2525 16.6357 51.0137 16.3224C50.775 16.009 50.6258 15.8151 50.5661 15.7405C50.2826 15.3675 50.0141 15.2854 49.7604 15.4943C49.5067 15.7032 49.3501 16.1359 49.2904 16.7924C49.2606 17.1803 49.2606 17.6279 49.2904 18.1352C49.3352 18.6276 49.3948 19.0678 49.4694 19.4557C49.559 19.8437 49.6485 20.0749 49.738 20.1495C49.4247 20.3883 49.0367 20.6121 48.5742 20.821C48.1117 21.0298 47.582 21.1567 46.9852 21.2014C46.7614 21.2163 46.5002 21.1567 46.2018 21.0224C45.9034 20.8881 45.6423 20.6717 45.4185 20.3733C45.2096 20.06 45.0977 19.6721 45.0828 19.2095C45.0828 19.0902 45.0753 18.7768 45.0604 18.2695C45.0604 17.7622 45.0529 17.143 45.038 16.4119C45.038 15.6659 45.038 14.8975 45.038 14.1067C45.038 13.3159 45.0306 12.5698 45.0156 11.8686C45.0156 11.1673 45.0156 10.6003 45.0156 10.1676C45.0156 9.73492 45.0156 9.51857 45.0156 9.51857C45.0156 8.63825 44.9933 7.90714 44.9485 7.32524C44.9037 6.72841 44.7247 6.27333 44.4114 5.96C44.1279 5.67651 43.9115 5.26619 43.7623 4.72905C43.628 4.1919 43.5683 3.6846 43.5833 3.20714C43.6429 3.22206 43.822 3.24444 44.1204 3.27428C44.4188 3.28921 44.7098 3.31159 44.9933 3.34143C45.1872 3.34143 45.4633 3.34143 45.8214 3.34143C46.1944 3.32651 46.5898 3.31159 47.0075 3.29667C47.4253 3.28174 47.8133 3.27428 48.1714 3.27428C48.5294 3.25936 48.798 3.24444 48.9771 3.22952C49.1114 3.22952 49.3575 3.22952 49.7156 3.22952C50.0887 3.2146 50.5214 3.20714 51.0137 3.20714C51.5061 3.20714 52.006 3.2146 52.5133 3.22952C53.0206 3.22952 53.4906 3.24444 53.9233 3.27428C54.356 3.30413 54.6917 3.34143 54.9304 3.38619C55.9152 3.56524 56.6761 3.89349 57.2133 4.37095C57.7504 4.84841 58.1309 5.42286 58.3547 6.09429C58.5934 6.76571 58.7352 7.49682 58.7799 8.28762C58.8098 8.95905 58.7352 9.66032 58.5561 10.3914C58.3771 11.1225 58.0712 11.8014 57.6385 12.4281C57.2058 13.0548 56.6314 13.5471 55.9152 13.9052ZM49.3352 9.09333C49.3352 9.57079 49.4471 9.92889 49.6709 10.1676C49.8947 10.3914 50.1036 10.5257 50.2975 10.5705C50.5661 10.6302 50.9093 10.6376 51.3271 10.5929C51.7448 10.5332 52.1626 10.4287 52.5804 10.2795C52.9982 10.1154 53.3488 9.90651 53.6323 9.65286C53.9307 9.39921 54.0799 9.10825 54.0799 8.78C54.0799 8.3473 53.9009 8.01905 53.5428 7.79524C53.1847 7.55651 52.7296 7.4073 52.1775 7.34762C51.6404 7.28794 51.1033 7.30286 50.5661 7.39238C50.1483 7.45206 49.835 7.63857 49.6261 7.9519C49.4172 8.26524 49.3202 8.64571 49.3352 9.09333ZM63.7718 7.68333C63.2644 7.69825 62.8094 7.55651 62.4065 7.25809C62.0186 6.95968 61.7202 6.59413 61.5113 6.16143C61.3173 5.71381 61.2427 5.28857 61.2875 4.88571C61.3621 4.27397 61.6381 3.84127 62.1156 3.58762C62.593 3.33397 63.0929 3.19968 63.6151 3.18476C64.3611 3.15492 64.943 3.34889 65.3608 3.76667C65.7786 4.18444 65.9875 4.6619 65.9875 5.19905C65.9875 5.55714 65.9054 5.9227 65.7413 6.29571C65.5921 6.66873 65.3533 6.98952 65.0251 7.25809C64.6968 7.51175 64.2791 7.65349 63.7718 7.68333ZM66.1441 18.7395C66.1591 19.0081 66.2411 19.2394 66.3903 19.4333C66.5544 19.6124 66.7484 19.784 66.9722 19.9481C66.8678 20.0824 66.7335 20.2241 66.5694 20.3733C66.4052 20.5225 66.1591 20.6643 65.8308 20.7986C65.5175 20.9179 65.0624 21.0149 64.4656 21.0895C64.2716 21.1044 64.0254 21.0821 63.727 21.0224C63.4286 20.9776 63.1302 20.8359 62.8318 20.5971C62.5483 20.3435 62.317 19.9481 62.1379 19.411C61.9589 18.8589 61.8843 18.1054 61.9141 17.1505C61.9291 16.9863 61.9291 16.6656 61.9141 16.1881C61.9141 15.7106 61.9067 15.1437 61.8918 14.4871C61.8918 13.8306 61.8843 13.1517 61.8694 12.4505C61.8694 11.7492 61.8619 11.1002 61.847 10.5033C61.847 9.89159 61.8395 9.39921 61.8246 9.02619C61.8246 8.63825 61.8246 8.44428 61.8246 8.44428C61.9589 8.42936 62.1827 8.41444 62.496 8.39952C62.8243 8.36968 63.1824 8.36968 63.5703 8.39952C63.9583 8.42936 64.3313 8.50397 64.6894 8.62333C65.0624 8.72778 65.3757 8.89936 65.6294 9.13809C65.8979 9.37682 66.0546 9.69762 66.0994 10.1005C66.174 10.6675 66.2038 11.4284 66.1889 12.3833C66.174 13.3233 66.1516 14.3529 66.1218 15.4719C66.0919 16.576 66.0994 17.6652 66.1441 18.7395ZM85.0328 18.1576C85.0477 18.3367 85.0925 18.5605 85.1671 18.829C85.2566 19.0827 85.3387 19.314 85.4133 19.5229C85.5028 19.7317 85.5475 19.8362 85.5475 19.8362C85.4729 19.9257 85.3163 20.0898 85.0775 20.3286C84.8388 20.5673 84.5329 20.7837 84.1599 20.9776C83.8018 21.1567 83.3915 21.2089 82.929 21.1343C82.1083 20.9851 81.5488 20.6419 81.2504 20.1048C80.9669 19.5676 80.8177 18.9559 80.8028 18.2695C80.8028 18.1502 80.8102 17.9189 80.8252 17.5757C80.8401 17.2325 80.8475 16.8521 80.8475 16.4343C80.8625 16.0016 80.8625 15.5987 80.8475 15.2257C80.8475 14.8378 80.8177 14.5543 80.758 14.3752C80.6685 14.0321 80.5342 13.8232 80.3552 13.7486C80.1761 13.674 79.9896 13.6889 79.7956 13.7933C79.6017 13.8829 79.4375 14.0321 79.3033 14.241C79.169 14.4498 79.1018 14.6737 79.1018 14.9124C79.0869 15.2854 79.0795 15.6062 79.0795 15.8748C79.0795 16.1433 79.0869 16.494 79.1018 16.9267C79.1018 17.0311 79.1168 17.2251 79.1466 17.5086C79.1764 17.7921 79.2137 18.1129 79.2585 18.471C79.3033 18.829 79.348 19.1797 79.3928 19.5229C79.4525 19.8511 79.5121 20.1197 79.5718 20.3286C79.1988 20.5971 78.7587 20.821 78.2514 21C77.759 21.179 77.1248 21.179 76.349 21C75.9461 20.9105 75.6477 20.724 75.4537 20.4405C75.2598 20.157 75.1255 19.8287 75.0509 19.4557C74.9912 19.0678 74.9614 18.6724 74.9614 18.2695C74.9614 17.8667 74.9614 17.4937 74.9614 17.1505C74.9614 16.9863 74.9688 16.7252 74.9837 16.3671C75.0136 16.009 75.0285 15.636 75.0285 15.2481C75.0285 14.8452 74.9912 14.5244 74.9166 14.2857C74.8569 14.0917 74.7599 13.9724 74.6256 13.9276C74.5063 13.8679 74.4018 13.8456 74.3123 13.8605C74.0736 13.8754 73.8647 13.9425 73.6856 14.0619C73.5215 14.1813 73.4096 14.4275 73.3499 14.8005C73.3201 14.9795 73.2977 15.2779 73.2828 15.6957C73.2828 16.0986 73.2828 16.5313 73.2828 16.9938C73.2828 17.4414 73.2828 17.8368 73.2828 18.18C73.2977 18.5232 73.3126 18.7246 73.3275 18.7843C73.3723 18.9932 73.4618 19.1498 73.5961 19.2543C73.7304 19.3438 73.7975 19.3886 73.7975 19.3886C73.7975 19.3886 73.7155 19.4856 73.5514 19.6795C73.4021 19.8586 73.1933 20.0675 72.9247 20.3062C72.6561 20.5449 72.3428 20.7538 71.9847 20.9329C71.6266 21.097 71.2387 21.1567 70.8209 21.1119C70.418 21.0821 70.0375 20.8732 69.6794 20.4852C69.3363 20.0973 69.1572 19.5602 69.1423 18.8738L69.0752 10.2795C69.0602 9.74238 69.0006 9.30222 68.8961 8.95905C68.8066 8.61587 68.7618 8.44428 68.7618 8.44428C68.911 8.41444 69.1796 8.39206 69.5675 8.37714C69.9555 8.36222 70.3882 8.37714 70.8656 8.4219C71.3431 8.45175 71.7758 8.55619 72.1637 8.73524C72.4025 8.83968 72.671 8.88444 72.9694 8.86952C73.2828 8.83968 73.5514 8.75762 73.7752 8.62333C74.0288 8.48905 74.2825 8.36968 74.5361 8.26524C74.8047 8.16079 75.0733 8.09365 75.3418 8.06381C75.6552 8.03397 76.0356 8.06381 76.4833 8.15333C76.9309 8.24286 77.3934 8.40698 77.8709 8.64571C78.1693 8.79492 78.5199 8.89936 78.9228 8.95905C79.3256 9.01873 79.6017 8.99635 79.7509 8.8919C80.0493 8.68302 80.3626 8.50397 80.6909 8.35476C81.0341 8.20555 81.3772 8.10857 81.7204 8.06381C81.9741 8.03397 82.2725 8.04889 82.6156 8.10857C82.9737 8.15333 83.3169 8.26524 83.6452 8.44428C83.9883 8.62333 84.2793 8.87698 84.518 9.20524C84.7717 9.53349 84.9283 9.95127 84.988 10.4586C85.0328 10.8913 85.0552 11.4583 85.0552 12.1595C85.0701 12.8459 85.0701 13.577 85.0552 14.3529C85.0402 15.1138 85.0253 15.8375 85.0104 16.5238C85.0104 17.1952 85.0179 17.7398 85.0328 18.1576ZM99.7164 14.1738C99.8507 15.4271 99.7537 16.5014 99.4255 17.3967C99.0972 18.2919 98.6198 19.0305 97.9931 19.6124C97.3664 20.1943 96.6652 20.627 95.8893 20.9105C95.1134 21.179 94.3375 21.3133 93.5617 21.3133C93.2036 21.3133 92.7634 21.276 92.2412 21.2014C91.7339 21.1268 91.2714 21.1567 90.8536 21.291C90.7193 21.3357 90.5925 21.373 90.4731 21.4029C90.3537 21.4327 90.1971 21.4402 90.0031 21.4252C89.8241 21.4103 89.5928 21.3283 89.3093 21.179C89.0258 21.0298 88.7572 20.8135 88.5036 20.53C88.2499 20.2316 88.0709 19.881 87.9664 19.4781C87.8471 19.0305 87.7426 18.4187 87.6531 17.6429C87.5785 16.8521 87.5188 15.9717 87.4741 15.0019C87.4293 14.0321 87.3995 13.0324 87.3845 12.0029C87.3696 10.9584 87.3547 9.94381 87.3398 8.95905C87.3398 7.95936 87.3398 7.05667 87.3398 6.25095C87.3547 5.44524 87.3621 4.78873 87.3621 4.28143C87.3621 3.7592 87.3547 3.45333 87.3398 3.36381C87.5636 3.31905 87.8918 3.31159 88.3245 3.34143C88.7721 3.35635 89.2347 3.43095 89.7121 3.56524C90.1896 3.6846 90.6148 3.89349 90.9879 4.1919C91.3609 4.4754 91.5921 4.87079 91.6817 5.37809C91.7563 5.87048 91.816 6.34794 91.8607 6.81048C91.9204 7.25809 92.1144 7.58635 92.4426 7.79524C92.562 7.86984 92.7261 7.92952 92.935 7.97429C93.1588 8.00413 93.3901 8.02651 93.6288 8.04143C94.718 8.05635 95.6953 8.33984 96.5607 8.8919C97.441 9.42905 98.1572 10.1602 98.7093 11.0852C99.2614 11.9954 99.5971 13.0249 99.7164 14.1738ZM93.8079 17.9338C94.3301 17.9189 94.7479 17.7697 95.0612 17.4862C95.3895 17.1878 95.6282 16.8148 95.7774 16.3671C95.9266 15.9195 96.0012 15.4644 96.0012 15.0019C96.0012 14.5244 95.949 14.047 95.8445 13.5695C95.7401 13.0771 95.5387 12.6668 95.2402 12.3386C94.9568 11.9954 94.5464 11.8238 94.0093 11.8238C93.5766 11.8238 93.2036 11.9805 92.8902 12.2938C92.5769 12.5922 92.3382 12.9727 92.1741 13.4352C92.0099 13.8829 91.9204 14.323 91.9055 14.7557C91.8906 15.1735 91.9502 15.636 92.0845 16.1433C92.2188 16.6357 92.4277 17.061 92.7112 17.419C93.0096 17.7622 93.3752 17.9338 93.8079 17.9338ZM113.901 16.949C113.916 17.2773 113.938 17.6802 113.968 18.1576C114.013 18.6351 114.11 19.0976 114.259 19.5452C114.408 19.9929 114.647 20.351 114.975 20.6195C114.602 20.8732 114.222 21.0522 113.834 21.1567C113.446 21.276 113.065 21.3059 112.692 21.2462C112.588 21.2163 112.476 21.179 112.356 21.1343C112.237 21.1044 112.073 21.0597 111.864 21C111.521 20.8956 111.118 20.8732 110.655 20.9329C110.193 20.9925 109.708 21.0671 109.201 21.1567C108.708 21.2611 108.223 21.3133 107.746 21.3133C106.97 21.3133 106.194 21.179 105.418 20.9105C104.642 20.627 103.941 20.1943 103.315 19.6124C102.688 19.0305 102.21 18.2919 101.882 17.3967C101.554 16.5014 101.457 15.4271 101.591 14.1738C101.681 13.3084 101.927 12.5176 102.33 11.8014C102.733 11.0703 103.225 10.4437 103.807 9.92143C104.404 9.38428 105.03 8.97397 105.687 8.69048C106.358 8.39206 107.007 8.25032 107.634 8.26524C108.112 8.28016 108.477 8.29508 108.731 8.31C108.999 8.32492 109.342 8.36222 109.76 8.4219C110.014 8.45175 110.335 8.41444 110.723 8.31C111.111 8.20556 111.498 8.09365 111.886 7.97429C112.289 7.84 112.632 7.77286 112.916 7.77286C113.349 7.75794 113.655 7.77286 113.834 7.81762C114.013 7.84746 114.162 7.8773 114.281 7.90714C114.192 8.17571 114.117 8.57857 114.057 9.11571C113.998 9.65286 113.953 10.2646 113.923 10.951C113.908 11.6224 113.893 12.3237 113.878 13.0548C113.863 13.7859 113.856 14.4871 113.856 15.1586C113.871 15.83 113.886 16.4268 113.901 16.949ZM105.485 14.89C105.515 15.636 105.65 16.2179 105.888 16.6357C106.142 17.0386 106.44 17.3221 106.784 17.4862C107.142 17.6503 107.485 17.7324 107.813 17.7324C108.47 17.7473 108.955 17.4937 109.268 16.9714C109.581 16.4492 109.73 15.7256 109.715 14.8005C109.715 14.5468 109.686 14.2484 109.626 13.9052C109.581 13.5621 109.492 13.2263 109.357 12.8981C109.238 12.5698 109.066 12.2938 108.843 12.07C108.634 11.8462 108.358 11.7343 108.015 11.7343C107.328 11.7343 106.724 11.9879 106.202 12.4952C105.694 13.0025 105.456 13.8008 105.485 14.89ZM56.4299 39.2176C57.0864 39.8294 57.6534 40.2248 58.1309 40.4038C58.0861 40.5829 57.9891 40.8216 57.8399 41.12C57.7056 41.4184 57.5266 41.7168 57.3028 42.0152C57.0939 42.3137 56.8477 42.5673 56.5642 42.7762C56.2807 42.9851 55.9674 43.097 55.6242 43.1119C55.2064 43.1268 54.826 43.0821 54.4828 42.9776C54.1545 42.8583 53.8039 42.6643 53.4309 42.3957C53.1474 42.1719 52.8117 41.8884 52.4237 41.5452C52.0507 41.1871 51.6852 40.8216 51.3271 40.4486C50.969 40.0756 50.6855 39.7622 50.4766 39.5086C50.1782 39.1206 49.8574 38.7924 49.5142 38.5238C49.171 38.2552 48.7906 38.1508 48.3728 38.2105C48.1341 38.2254 47.9848 38.2925 47.9252 38.4119C47.8804 38.5163 47.8356 38.7327 47.7909 39.061C47.761 39.2848 47.7536 39.5533 47.7685 39.8667C47.7834 40.1651 47.8058 40.4486 47.8356 40.7171C47.8804 40.9857 47.9028 41.1797 47.9028 41.299C47.9028 41.5676 47.955 41.7765 48.0594 41.9257C48.1639 42.06 48.2683 42.1868 48.3728 42.3062C48.1191 42.5002 47.7237 42.709 47.1866 42.9329C46.6494 43.1567 46.0526 43.2686 45.3961 43.2686C44.9634 43.2686 44.6202 43.097 44.3666 42.7538C44.1279 42.4106 43.9563 41.9929 43.8518 41.5005C43.7474 41.0081 43.6877 40.5306 43.6728 40.0681C43.6728 39.9338 43.6653 39.5683 43.6504 38.9714C43.6504 38.3746 43.6429 37.636 43.628 36.7557C43.628 35.8605 43.628 34.9056 43.628 33.891C43.628 32.8614 43.6206 31.8468 43.6056 30.8471C43.6056 29.8325 43.5982 28.9149 43.5833 28.0943C43.5833 27.2587 43.5833 26.5948 43.5833 26.1024C43.5833 25.5951 43.5833 25.3414 43.5833 25.3414C43.7474 25.3116 44.0309 25.3041 44.4337 25.319C44.8515 25.334 45.2842 25.4011 45.7318 25.5205C46.2391 25.6398 46.7017 25.8413 47.1194 26.1248C47.5521 26.4083 47.7983 26.8186 47.858 27.3557C47.8879 27.6989 47.9028 27.9824 47.9028 28.2062C47.9177 28.43 47.9252 28.6613 47.9252 28.9C47.9252 29.6908 48.1191 30.1906 48.5071 30.3995C48.9398 30.6233 49.5291 30.4741 50.2752 29.9519C50.3945 29.8624 50.6034 29.6908 50.9018 29.4371C51.2002 29.1686 51.5434 28.8552 51.9314 28.4971C52.3193 28.139 52.7221 27.766 53.1399 27.3781C53.5577 26.9902 53.9382 26.6321 54.2814 26.3038C54.6394 25.9606 54.9304 25.6846 55.1542 25.4757C55.378 25.2668 55.4899 25.1624 55.4899 25.1624C55.6242 25.2668 55.8107 25.513 56.0494 25.901C56.3031 26.2889 56.5269 26.7216 56.7209 27.199C56.9148 27.6765 57.0342 28.1689 57.079 28.6762C57.1387 29.1686 57.0417 29.5789 56.788 29.9071C56.6836 30.0414 56.512 30.2205 56.2733 30.4443C56.0494 30.6681 55.7958 30.9068 55.5123 31.1605C55.2437 31.3992 54.9826 31.6305 54.729 31.8543C54.4753 32.0632 54.2814 32.2273 54.1471 32.3467C53.8636 32.5854 53.6248 32.8838 53.4309 33.2419C53.2518 33.5851 53.1399 33.9432 53.0952 34.3162C53.0504 34.6892 53.0653 35.0622 53.1399 35.4352C53.2145 35.8083 53.3787 36.1514 53.6323 36.4648C53.8114 36.6737 54.0799 36.9571 54.438 37.3152C54.7961 37.6584 55.1617 38.009 55.5347 38.3671C55.9077 38.7103 56.2061 38.9938 56.4299 39.2176ZM71.2118 37.3824C71.5849 37.636 71.8236 38.0016 71.928 38.479C72.0474 38.9416 72.0325 39.4489 71.8833 40.001C71.749 40.553 71.473 41.0827 71.0552 41.59C70.6374 42.0824 70.0704 42.4927 69.3542 42.821C68.653 43.1492 67.8025 43.3208 66.8028 43.3357C65.9672 43.3506 65.1466 43.2462 64.3409 43.0224C63.5501 42.7986 62.8264 42.4554 62.1699 41.9929C61.5284 41.5303 61.0061 40.9335 60.6033 40.2024C60.2004 39.4713 59.9766 38.5984 59.9318 37.5838C59.9169 37.3749 59.9169 37.1586 59.9318 36.9348C59.9468 36.711 59.9617 36.4797 59.9766 36.241C59.9766 36.1813 59.9766 36.1216 59.9766 36.0619C59.9915 36.0022 60.0064 35.9425 60.0214 35.8829C60.1706 34.9876 60.4764 34.167 60.939 33.421C61.4164 32.6749 61.9984 32.0408 62.6847 31.5186C63.3711 30.9963 64.1022 30.6159 64.878 30.3771C65.6688 30.1235 66.4447 30.034 67.2057 30.1086C68.3844 30.2279 69.2945 30.5413 69.9361 31.0486C70.5926 31.5559 71.0179 32.1825 71.2118 32.9286C71.4207 33.6597 71.4282 34.4505 71.2342 35.301C71.1298 35.7187 70.8911 36.1365 70.518 36.5543C70.1599 36.9571 69.7123 37.3227 69.1752 37.651C68.638 37.9643 68.0636 38.2105 67.4518 38.3895C66.855 38.5537 66.2731 38.6208 65.7061 38.591C65.4226 38.576 65.2734 38.6656 65.2585 38.8595C65.2436 39.0386 65.3257 39.24 65.5047 39.4638C65.6837 39.6727 65.9225 39.8144 66.2209 39.889C66.9222 40.0383 67.5787 40.0457 68.1904 39.9114C68.8171 39.7622 69.2945 39.5608 69.6228 39.3071C69.8914 39.0983 70.1749 38.8222 70.4733 38.479C70.7717 38.121 71.0179 37.7554 71.2118 37.3824ZM66.3104 35.1219C66.6536 35.0921 66.952 34.9876 67.2057 34.8086C67.4742 34.6146 67.6085 34.4132 67.6085 34.2043C67.6234 33.9059 67.5488 33.6671 67.3847 33.4881C67.2355 33.2941 66.9744 33.2046 66.6014 33.2195C66.1836 33.2344 65.7807 33.2941 65.3928 33.3986C65.0049 33.503 64.7736 33.7194 64.699 34.0476C64.6542 34.2714 64.7214 34.4654 64.9004 34.6295C65.0795 34.7937 65.3033 34.9205 65.5718 35.01C65.8404 35.0846 66.0866 35.1219 66.3104 35.1219ZM90.0816 40.1576C90.0965 40.3367 90.1413 40.5605 90.2159 40.829C90.3054 41.0827 90.3875 41.314 90.4621 41.5229C90.5516 41.7317 90.5964 41.8362 90.5964 41.8362C90.5218 41.9257 90.3651 42.0898 90.1264 42.3286C89.8876 42.5673 89.5818 42.7837 89.2088 42.9776C88.8507 43.1567 88.4403 43.2089 87.9778 43.1343C87.1572 42.9851 86.5976 42.6419 86.2992 42.1048C86.0157 41.5676 85.8665 40.9559 85.8516 40.2695C85.8516 40.1502 85.8591 39.9189 85.874 39.5757C85.8889 39.2325 85.8964 38.8521 85.8964 38.4343C85.9113 38.0016 85.9113 37.5987 85.8964 37.2257C85.8964 36.8378 85.8665 36.5543 85.8069 36.3752C85.7173 36.0321 85.583 35.8232 85.404 35.7486C85.2249 35.674 85.0384 35.6889 84.8445 35.7933C84.6505 35.8829 84.4864 36.0321 84.3521 36.241C84.2178 36.4498 84.1507 36.6737 84.1507 36.9124C84.1357 37.2854 84.1283 37.6062 84.1283 37.8748C84.1283 38.1433 84.1357 38.494 84.1507 38.9267C84.1507 39.0311 84.1656 39.2251 84.1954 39.5086C84.2253 39.7921 84.2626 40.1129 84.3073 40.471C84.3521 40.829 84.3969 41.1797 84.4416 41.5229C84.5013 41.8511 84.561 42.1197 84.6207 42.3286C84.2476 42.5971 83.8075 42.821 83.3002 43C82.8078 43.179 82.1737 43.179 81.3978 43C80.9949 42.9105 80.6965 42.724 80.5026 42.4405C80.3086 42.157 80.1743 41.8287 80.0997 41.4557C80.04 41.0678 80.0102 40.6724 80.0102 40.2695C80.0102 39.8667 80.0102 39.4937 80.0102 39.1505C80.0102 38.9863 80.0176 38.7252 80.0326 38.3671C80.0624 38.009 80.0773 37.636 80.0773 37.2481C80.0773 36.8452 80.04 36.5244 79.9654 36.2857C79.9057 36.0917 79.8088 35.9724 79.6745 35.9276C79.5551 35.8679 79.4507 35.8456 79.3611 35.8605C79.1224 35.8754 78.9135 35.9425 78.7345 36.0619C78.5703 36.1813 78.4584 36.4275 78.3988 36.8005C78.3689 36.9795 78.3465 37.2779 78.3316 37.6957C78.3316 38.0986 78.3316 38.5313 78.3316 38.9938C78.3316 39.4414 78.3316 39.8368 78.3316 40.18C78.3465 40.5232 78.3615 40.7246 78.3764 40.7843C78.4211 40.9932 78.5107 41.1498 78.6449 41.2543C78.7792 41.3438 78.8464 41.3886 78.8464 41.3886C78.8464 41.3886 78.7643 41.4856 78.6002 41.6795C78.451 41.8586 78.2421 42.0675 77.9735 42.3062C77.7049 42.5449 77.3916 42.7538 77.0335 42.9329C76.6754 43.097 76.2875 43.1567 75.8697 43.1119C75.4668 43.0821 75.0864 42.8732 74.7283 42.4852C74.3851 42.0973 74.2061 41.5602 74.1911 40.8738L74.124 32.2795C74.1091 31.7424 74.0494 31.3022 73.9449 30.959C73.8554 30.6159 73.8107 30.4443 73.8107 30.4443C73.9599 30.4144 74.2284 30.3921 74.6164 30.3771C75.0043 30.3622 75.437 30.3771 75.9145 30.4219C76.3919 30.4517 76.8246 30.5562 77.2126 30.7352C77.4513 30.8397 77.7199 30.8844 78.0183 30.8695C78.3316 30.8397 78.6002 30.7576 78.824 30.6233C79.0776 30.489 79.3313 30.3697 79.5849 30.2652C79.8535 30.1608 80.1221 30.0936 80.3907 30.0638C80.704 30.034 81.0845 30.0638 81.5321 30.1533C81.9797 30.2429 82.4422 30.407 82.9197 30.6457C83.2181 30.7949 83.5688 30.8994 83.9716 30.959C84.3745 31.0187 84.6505 30.9963 84.7997 30.8919C85.0981 30.683 85.4115 30.504 85.7397 30.3548C86.0829 30.2056 86.4261 30.1086 86.7692 30.0638C87.0229 30.034 87.3213 30.0489 87.6645 30.1086C88.0226 30.1533 88.3657 30.2652 88.694 30.4443C89.0372 30.6233 89.3281 30.877 89.5668 31.2052C89.8205 31.5335 89.9772 31.9513 90.0369 32.4586C90.0816 32.8913 90.104 33.4583 90.104 34.1595C90.1189 34.8459 90.1189 35.577 90.104 36.3529C90.0891 37.1138 90.0742 37.8375 90.0592 38.5238C90.0592 39.1952 90.0667 39.7398 90.0816 40.1576ZM104.765 36.1738C104.9 37.4271 104.803 38.5014 104.474 39.3967C104.146 40.2919 103.669 41.0305 103.042 41.6124C102.415 42.1943 101.714 42.627 100.938 42.9105C100.162 43.179 99.3864 43.3133 98.6105 43.3133C98.2524 43.3133 97.8122 43.276 97.29 43.2014C96.7827 43.1268 96.3202 43.1567 95.9024 43.291C95.7681 43.3357 95.6413 43.373 95.5219 43.4029C95.4026 43.4327 95.2459 43.4402 95.0519 43.4252C94.8729 43.4103 94.6416 43.3283 94.3581 43.179C94.0746 43.0298 93.8061 42.8135 93.5524 42.53C93.2988 42.2316 93.1197 41.881 93.0153 41.4781C92.8959 41.0305 92.7915 40.4187 92.7019 39.6429C92.6273 38.8521 92.5676 37.9717 92.5229 37.0019C92.4781 36.0321 92.4483 35.0324 92.4334 34.0029C92.4184 32.9584 92.4035 31.9438 92.3886 30.959C92.3886 29.9594 92.3886 29.0567 92.3886 28.251C92.4035 27.4452 92.411 26.7887 92.411 26.2814C92.411 25.7592 92.4035 25.4533 92.3886 25.3638C92.6124 25.319 92.9407 25.3116 93.3734 25.3414C93.821 25.3563 94.2835 25.431 94.761 25.5652C95.2384 25.6846 95.6637 25.8935 96.0367 26.1919C96.4097 26.4754 96.641 26.8708 96.7305 27.3781C96.8051 27.8705 96.8648 28.3479 96.9095 28.8105C96.9692 29.2581 97.1632 29.5863 97.4915 29.7952C97.6108 29.8698 97.7749 29.9295 97.9838 29.9743C98.2076 30.0041 98.4389 30.0265 98.6776 30.0414C99.7669 30.0563 100.744 30.3398 101.61 30.8919C102.49 31.429 103.206 32.1602 103.758 33.0852C104.31 33.9954 104.646 35.0249 104.765 36.1738ZM98.8567 39.9338C99.3789 39.9189 99.7967 39.7697 100.11 39.4862C100.438 39.1878 100.677 38.8148 100.826 38.3671C100.975 37.9195 101.05 37.4644 101.05 37.0019C101.05 36.5244 100.998 36.047 100.893 35.5695C100.789 35.0771 100.587 34.6668 100.289 34.3386C100.006 33.9954 99.5953 33.8238 99.0581 33.8238C98.6254 33.8238 98.2524 33.9805 97.9391 34.2938C97.6257 34.5922 97.387 34.9727 97.2229 35.4352C97.0588 35.8829 96.9692 36.323 96.9543 36.7557C96.9394 37.1735 96.9991 37.636 97.1334 38.1433C97.2676 38.6357 97.4765 39.061 97.76 39.419C98.0584 39.7622 98.424 39.9338 98.8567 39.9338ZM118.95 38.949C118.964 39.2773 118.987 39.6802 119.017 40.1576C119.061 40.6351 119.158 41.0976 119.308 41.5452C119.457 41.9929 119.696 42.351 120.024 42.6195C119.651 42.8732 119.27 43.0522 118.882 43.1567C118.494 43.276 118.114 43.3059 117.741 43.2462C117.637 43.2163 117.525 43.179 117.405 43.1343C117.286 43.1044 117.122 43.0597 116.913 43C116.57 42.8956 116.167 42.8732 115.704 42.9329C115.242 42.9925 114.757 43.0671 114.25 43.1567C113.757 43.2611 113.272 43.3133 112.795 43.3133C112.019 43.3133 111.243 43.179 110.467 42.9105C109.691 42.627 108.99 42.1943 108.363 41.6124C107.737 41.0305 107.259 40.2919 106.931 39.3967C106.603 38.5014 106.506 37.4271 106.64 36.1738C106.73 35.3084 106.976 34.5176 107.379 33.8014C107.781 33.0703 108.274 32.4437 108.856 31.9214C109.453 31.3843 110.079 30.974 110.736 30.6905C111.407 30.3921 112.056 30.2503 112.683 30.2652C113.16 30.2802 113.526 30.2951 113.78 30.31C114.048 30.3249 114.391 30.3622 114.809 30.4219C115.063 30.4517 115.384 30.4144 115.771 30.31C116.159 30.2056 116.547 30.0937 116.935 29.9743C117.338 29.84 117.681 29.7729 117.965 29.7729C118.397 29.7579 118.703 29.7729 118.882 29.8176C119.061 29.8475 119.211 29.8773 119.33 29.9071C119.24 30.1757 119.166 30.5786 119.106 31.1157C119.047 31.6529 119.002 32.2646 118.972 32.951C118.957 33.6224 118.942 34.3237 118.927 35.0548C118.912 35.7859 118.905 36.4871 118.905 37.1586C118.92 37.83 118.935 38.4268 118.95 38.949ZM110.534 36.89C110.564 37.636 110.698 38.2179 110.937 38.6357C111.191 39.0386 111.489 39.3221 111.832 39.4862C112.19 39.6503 112.534 39.7324 112.862 39.7324C113.518 39.7473 114.003 39.4937 114.317 38.9714C114.63 38.4492 114.779 37.7256 114.764 36.8005C114.764 36.5468 114.734 36.2484 114.675 35.9052C114.63 35.5621 114.54 35.2263 114.406 34.8981C114.287 34.5698 114.115 34.2938 113.891 34.07C113.683 33.8462 113.407 33.7343 113.063 33.7343C112.377 33.7343 111.773 33.9879 111.25 34.4952C110.743 35.0025 110.504 35.8008 110.534 36.89ZM122.188 41.1648C122.188 41.0454 122.188 40.7246 122.188 40.2024C122.188 39.6652 122.188 39.0013 122.188 38.2105C122.188 37.4197 122.18 36.5543 122.165 35.6143C122.165 34.6594 122.165 33.697 122.165 32.7271C122.165 31.7573 122.158 30.8397 122.143 29.9743C122.143 29.094 122.136 28.333 122.121 27.6914C122.106 27.0797 122.053 26.5724 121.964 26.1695C121.874 25.7517 121.822 25.4981 121.807 25.4086C121.986 25.3787 122.255 25.3713 122.613 25.3862C122.971 25.3862 123.367 25.431 123.799 25.5205C124.247 25.5951 124.672 25.7219 125.075 25.901C125.478 26.0651 125.814 26.3038 126.082 26.6171C126.351 26.9156 126.492 27.296 126.507 27.7586C126.522 28.0421 126.53 28.5419 126.53 29.2581C126.545 29.9594 126.552 30.7875 126.552 31.7424C126.567 32.6824 126.582 33.6522 126.597 34.6519C126.612 35.6367 126.619 36.5692 126.619 37.4495C126.634 38.3298 126.642 39.0684 126.642 39.6652C126.657 40.2471 126.664 40.5903 126.664 40.6948C126.664 41.0081 126.746 41.314 126.91 41.6124C127.089 41.8959 127.276 42.0749 127.47 42.1495C127.38 42.2689 127.179 42.4256 126.865 42.6195C126.552 42.8135 126.187 42.9925 125.769 43.1567C125.366 43.3208 124.956 43.4252 124.538 43.47C124.195 43.4998 123.837 43.4178 123.464 43.2238C123.105 43.0448 122.8 42.7762 122.546 42.4181C122.307 42.06 122.188 41.6422 122.188 41.1648ZM131.767 29.6833C131.26 29.6983 130.805 29.5565 130.402 29.2581C130.014 28.9597 129.715 28.5941 129.507 28.1614C129.313 27.7138 129.238 27.2886 129.283 26.8857C129.357 26.274 129.633 25.8413 130.111 25.5876C130.588 25.334 131.088 25.1997 131.61 25.1848C132.356 25.1549 132.938 25.3489 133.356 25.7667C133.774 26.1844 133.983 26.6619 133.983 27.199C133.983 27.5571 133.901 27.9227 133.737 28.2957C133.587 28.6687 133.349 28.9895 133.02 29.2581C132.692 29.5117 132.274 29.6535 131.767 29.6833ZM134.139 40.7395C134.154 41.0081 134.236 41.2394 134.386 41.4333C134.55 41.6124 134.744 41.784 134.967 41.9481C134.863 42.0824 134.729 42.2241 134.565 42.3733C134.401 42.5225 134.154 42.6643 133.826 42.7986C133.513 42.9179 133.058 43.0149 132.461 43.0895C132.267 43.1044 132.021 43.0821 131.722 43.0224C131.424 42.9776 131.125 42.8359 130.827 42.5971C130.544 42.3435 130.312 41.9481 130.133 41.411C129.954 40.8589 129.88 40.1054 129.909 39.1505C129.924 38.9863 129.924 38.6656 129.909 38.1881C129.909 37.7106 129.902 37.1437 129.887 36.4871C129.887 35.8306 129.88 35.1517 129.865 34.4505C129.865 33.7492 129.857 33.1002 129.842 32.5033C129.842 31.8916 129.835 31.3992 129.82 31.0262C129.82 30.6383 129.82 30.4443 129.82 30.4443C129.954 30.4294 130.178 30.4144 130.491 30.3995C130.82 30.3697 131.178 30.3697 131.566 30.3995C131.954 30.4294 132.327 30.504 132.685 30.6233C133.058 30.7278 133.371 30.8994 133.625 31.1381C133.893 31.3768 134.05 31.6976 134.095 32.1005C134.169 32.6675 134.199 33.4284 134.184 34.3833C134.169 35.3233 134.147 36.3529 134.117 37.4719C134.087 38.576 134.095 39.6652 134.139 40.7395Z" fill="url(#paint1_linear_116_51)"/>
</g>
<defs>
<filter id="filter0_di_116_51" x="-6.91414e-06" y="0" width="37.3761" height="45.4814" filterUnits="userSpaceOnUse" color-interpolation-filters="sRGB">
<feFlood flood-opacity="0" result="BackgroundImageFix"/>
<feColorMatrix in="SourceAlpha" type="matrix" values="0 0 0 0 0 0 0 0 0 0 0 0 0 0 0 0 0 0 127 0" result="hardAlpha"/>
<feOffset dy="0.688026"/>
<feGaussianBlur stdDeviation="0.344013"/>
<feComposite in2="hardAlpha" operator="out"/>
<feColorMatrix type="matrix" values="0 0 0 0 0 0 0 0 0 0 0 0 0 0 0 0 0 0 0.25 0"/>
<feBlend mode="normal" in2="BackgroundImageFix" result="effect1_dropShadow_116_51"/>
<feBlend mode="normal" in="SourceGraphic" in2="effect1_dropShadow_116_51" result="shape"/>
<feColorMatrix in="SourceAlpha" type="matrix" values="0 0 0 0 0 0 0 0 0 0 0 0 0 0 0 0 0 0 127 0" result="hardAlpha"/>
<feOffset dy="1.20404"/>
<feGaussianBlur stdDeviation="0.774029"/>
<feComposite in2="hardAlpha" operator="arithmetic" k2="-1" k3="1"/>
<feColorMatrix type="matrix" values="0 0 0 0 1 0 0 0 0 1 0 0 0 0 1 0 0 0 0.34 0"/>
<feBlend mode="normal" in2="shape" result="effect2_innerShadow_116_51"/>
</filter>
<filter id="filter1_di_116_51" x="42.8709" y="3.14001" width="92.7866" height="41.7548" filterUnits="userSpaceOnUse" color-interpolation-filters="sRGB">
<feFlood flood-opacity="0" result="BackgroundImageFix"/>
<feColorMatrix in="SourceAlpha" type="matrix" values="0 0 0 0 0 0 0 0 0 0 0 0 0 0 0 0 0 0 127 0" result="hardAlpha"/>
<feOffset dy="0.69"/>
<feGaussianBlur stdDeviation="0.345"/>
<feComposite in2="hardAlpha" operator="out"/>
<feColorMatrix type="matrix" values="0 0 0 0 0 0 0 0 0 0 0 0 0 0 0 0 0 0 0.25 0"/>
<feBlend mode="normal" in2="BackgroundImageFix" result="effect1_dropShadow_116_51"/>
<feBlend mode="normal" in="SourceGraphic" in2="effect1_dropShadow_116_51" result="shape"/>
<feColorMatrix in="SourceAlpha" type="matrix" values="0 0 0 0 0 0 0 0 0 0 0 0 0 0 0 0 0 0 127 0" result="hardAlpha"/>
<feOffset dy="1.2"/>
<feGaussianBlur stdDeviation="0.775"/>
<feComposite in2="hardAlpha" operator="arithmetic" k2="-1" k3="1"/>
<feColorMatrix type="matrix" values="0 0 0 0 1 0 0 0 0 1 0 0 0 0 1 0 0 0 0.34 0"/>
<feBlend mode="normal" in2="shape" result="effect2_innerShadow_116_51"/>
</filter>
<linearGradient id="paint0_linear_116_51" x1="36.688" y1="1.75143e-06" x2="0.68802" y2="44" gradientUnits="userSpaceOnUse">
<stop offset="0.0337487" stop-color="#78D160"/>
<stop offset="0.290476" stop-color="#508243"/>
<stop offset="0.662677" stop-color="#305426"/>
<stop offset="1" stop-color="#13210F"/>
</linearGradient>
<linearGradient id="paint1_linear_116_51" x1="136.688" y1="39.5" x2="42.688" y2="3.095e-09" gradientUnits="userSpaceOnUse">
<stop stop-color="#13210F"/>
<stop offset="0.409671" stop-color="#305426"/>
<stop offset="0.795684" stop-color="#508243"/>
<stop offset="0.966251" stop-color="#78D160"/>
</linearGradient>
</defs>
</svg>
