<svg width="31" height="31" viewBox="0 0 31 31" fill="none" xmlns="http://www.w3.org/2000/svg">
<mask id="mask0_428_1107" style="mask-type:alpha" maskUnits="userSpaceOnUse" x="0" y="0" width="31" height="31">
<circle cx="15.5" cy="15.5" r="15.5" fill="#D9D9D9"/>
</mask>
<g mask="url(#mask0_428_1107)">
<circle cx="15.5" cy="15.5" r="15.5" fill="#D9D9D9"/>
<mask id="mask1_428_1107" style="mask-type:luminance" maskUnits="userSpaceOnUse" x="4" y="20" width="23" height="12">
<path d="M4.40625 20.0146H26.6794V32.0002H4.40625V20.0146Z" fill="white"/>
</mask>
<g mask="url(#mask1_428_1107)">
<path d="M19.0411 20.0391H12.0446C11.9197 20.0391 11.7947 20.0427 11.6701 20.0496C11.5451 20.0566 11.4205 20.0672 11.2964 20.0811C11.172 20.095 11.0479 20.1122 10.9243 20.1331C10.8007 20.1539 10.6776 20.1778 10.5551 20.2053C10.4326 20.2328 10.3106 20.2639 10.1895 20.2981C10.0683 20.3322 9.94795 20.3697 9.82839 20.4108C9.70884 20.4516 9.59009 20.4958 9.47242 20.5432C9.35474 20.5907 9.23841 20.6411 9.12289 20.6949C9.00736 20.7487 8.89318 20.8059 8.78034 20.866C8.66724 20.9262 8.55574 20.9893 8.44559 21.0555C8.33544 21.1217 8.22663 21.1909 8.11943 21.2635C8.01224 21.3357 7.90692 21.4107 7.80295 21.4889C7.69898 21.5669 7.59688 21.6479 7.4964 21.7316C7.39619 21.8154 7.29759 21.9018 7.20114 21.9907C7.10443 22.0798 7.00986 22.1717 6.91744 22.266C6.82475 22.3603 6.73421 22.4573 6.64582 22.5565C6.55743 22.6559 6.47146 22.7578 6.38737 22.8617C6.30354 22.966 6.22187 23.0721 6.14262 23.1809C6.06336 23.2894 5.98652 23.4 5.91183 23.5128C5.83741 23.6258 5.76541 23.7407 5.6961 23.8573C5.62651 23.9743 5.55962 24.0928 5.49541 24.2134C5.4312 24.3337 5.36967 24.4561 5.31057 24.5797C5.25173 24.7036 5.19531 24.829 5.14185 24.956C5.08838 25.0829 5.03788 25.2114 4.98978 25.3414C4.94196 25.471 4.8971 25.6019 4.85492 25.7343C4.81274 25.8667 4.77351 25.9999 4.73697 26.1341C4.7007 26.2686 4.66739 26.404 4.63676 26.5404C4.6064 26.6767 4.579 26.8136 4.55455 26.9514C4.52983 27.0892 4.50861 27.2274 4.49007 27.3664C4.47153 27.5054 4.45622 27.6448 4.44386 27.7844C4.4315 27.9243 4.4221 28.0643 4.41592 28.2048C4.40974 28.3451 4.40652 28.4853 4.40625 28.6258V31.249C4.40625 31.2974 4.41055 31.3455 4.41888 31.3929C4.42747 31.4404 4.43983 31.4863 4.45622 31.531C4.47261 31.5758 4.49276 31.6181 4.51667 31.6583C4.54058 31.6985 4.56772 31.7356 4.59834 31.7698C4.6287 31.804 4.66175 31.8345 4.69748 31.8614C4.73321 31.8883 4.77109 31.911 4.81086 31.9297C4.85062 31.9481 4.89145 31.962 4.93363 31.9714C4.97581 31.9808 5.01853 31.9856 5.06152 31.9856H26.0242C26.0672 31.9856 26.1099 31.9808 26.1521 31.9714C26.1942 31.962 26.2351 31.9481 26.2748 31.9297C26.3146 31.911 26.3525 31.8883 26.3882 31.8614C26.4239 31.8345 26.457 31.804 26.4873 31.7698C26.518 31.7356 26.5451 31.6985 26.569 31.6583C26.5929 31.6181 26.6131 31.5758 26.6295 31.531C26.6459 31.4863 26.6582 31.4404 26.6668 31.3929C26.6751 31.3455 26.6794 31.2974 26.6794 31.249V28.6258C26.6792 28.4853 26.6759 28.3451 26.6698 28.2048C26.6636 28.0643 26.6542 27.9243 26.6418 27.7844C26.6295 27.6448 26.6142 27.5054 26.5956 27.3664C26.5771 27.2274 26.5556 27.0892 26.5311 26.9514C26.5067 26.8136 26.4793 26.6767 26.4489 26.5404C26.4183 26.404 26.385 26.2686 26.3487 26.1341C26.3122 25.9999 26.273 25.8667 26.2308 25.7343C26.1886 25.6019 26.1437 25.471 26.0959 25.3414C26.0478 25.2114 25.9973 25.0829 25.9438 24.956C25.8904 24.829 25.834 24.7036 25.7751 24.5797C25.716 24.4561 25.6545 24.3337 25.5903 24.2134C25.5258 24.0928 25.4592 23.9743 25.3896 23.8573C25.3203 23.7407 25.2483 23.6258 25.1739 23.5128C25.0992 23.4 25.0223 23.2894 24.9431 23.1809C24.8638 23.0721 24.7821 22.9657 24.6983 22.8617C24.6142 22.7578 24.5283 22.6559 24.4399 22.5565C24.3515 22.4573 24.2609 22.3603 24.1683 22.266C24.0758 22.1717 23.9813 22.0798 23.8845 21.991C23.7881 21.9018 23.6895 21.8154 23.5893 21.7316C23.4888 21.6479 23.3867 21.5669 23.2827 21.4889C23.1788 21.4107 23.0735 21.3357 22.9663 21.2635C22.8591 21.1909 22.7502 21.1217 22.6401 21.0555C22.5299 20.9893 22.4185 20.9262 22.3053 20.866C22.1925 20.8059 22.0783 20.7487 21.9628 20.6949C21.8473 20.6411 21.7309 20.5907 21.6133 20.5432C21.4956 20.4958 21.3768 20.4516 21.2573 20.4108C21.1377 20.3697 21.0174 20.3322 20.8962 20.2981C20.775 20.2639 20.6531 20.2328 20.5306 20.2053C20.4081 20.1778 20.285 20.1539 20.1614 20.1331C20.0378 20.1122 19.9137 20.095 19.7893 20.0811C19.6652 20.0672 19.5405 20.0569 19.4156 20.0496C19.291 20.0427 19.166 20.0391 19.0411 20.0391Z" fill="#A9A9A9"/>
</g>
<path d="M21.44 10.6279C21.44 10.7364 21.4376 10.8446 21.4328 10.9532C21.4282 11.0614 21.421 11.1696 21.4116 11.2775C21.4021 11.3857 21.3903 11.4933 21.3761 11.6006C21.3621 11.7079 21.3455 11.8146 21.3267 11.9209C21.3078 12.0273 21.2869 12.1331 21.2632 12.2383C21.2399 12.3435 21.2141 12.4481 21.1861 12.552C21.1582 12.6557 21.1278 12.7588 21.0953 12.8609C21.0628 12.9631 21.0282 13.064 20.9911 13.1644C20.9543 13.2644 20.9153 13.3636 20.874 13.4618C20.8326 13.5597 20.7893 13.6567 20.7439 13.7522C20.6983 13.8481 20.6507 13.9424 20.6013 14.0354C20.5516 14.1285 20.5 14.2201 20.4465 14.3102C20.3928 14.4006 20.3372 14.4891 20.2797 14.5762C20.2222 14.6632 20.1628 14.7487 20.1018 14.8328C20.0406 14.9165 19.9774 14.9987 19.9127 15.0791C19.8479 15.1595 19.7813 15.2378 19.7131 15.3146C19.6448 15.3913 19.575 15.466 19.5035 15.5388C19.432 15.6117 19.359 15.6827 19.2846 15.7513C19.2099 15.8202 19.1338 15.887 19.0565 15.9517C18.9788 16.0161 18.9001 16.0786 18.8198 16.1388C18.7394 16.1992 18.658 16.2573 18.5753 16.3129C18.4925 16.3688 18.4084 16.4223 18.3235 16.4734C18.2384 16.5244 18.1521 16.5731 18.0651 16.6196C17.9778 16.6659 17.8897 16.71 17.8005 16.7514C17.7113 16.7928 17.6213 16.8318 17.5305 16.8684C17.4396 16.905 17.348 16.9391 17.2556 16.9706C17.1635 17.002 17.0705 17.031 16.9767 17.0573C16.8832 17.0836 16.7889 17.1075 16.6944 17.1286C16.5998 17.1498 16.5047 17.1682 16.4093 17.1842C16.314 17.2003 16.218 17.2133 16.1221 17.2241C16.0262 17.2347 15.9298 17.2426 15.8336 17.248C15.7371 17.2532 15.6407 17.2559 15.5442 17.2559C15.4478 17.2559 15.3513 17.2532 15.2549 17.248C15.1587 17.2426 15.0623 17.2347 14.9663 17.2241C14.8704 17.2133 14.7745 17.2003 14.6791 17.1842C14.5838 17.1682 14.4887 17.1498 14.3941 17.1286C14.2995 17.1075 14.2052 17.0836 14.1117 17.0573C14.018 17.031 13.925 17.002 13.8329 16.9706C13.7404 16.9391 13.6488 16.905 13.558 16.8684C13.4672 16.8318 13.3772 16.7928 13.288 16.7514C13.1988 16.71 13.1107 16.6659 13.0234 16.6196C12.9363 16.5731 12.8501 16.5244 12.7649 16.4734C12.6798 16.4223 12.5959 16.3688 12.5132 16.3129C12.4304 16.2573 12.349 16.1992 12.2687 16.1388C12.1884 16.0786 12.1097 16.0161 12.032 15.9517C11.9546 15.887 11.8786 15.8202 11.8039 15.7513C11.7295 15.6827 11.6564 15.6117 11.585 15.5388C11.5135 15.466 11.4436 15.3913 11.3754 15.3146C11.3072 15.2378 11.2405 15.1595 11.1758 15.0791C11.111 14.9987 11.0479 14.9165 10.9866 14.8328C10.9257 14.7487 10.8663 14.6632 10.8088 14.5762C10.7513 14.4891 10.6957 14.4006 10.642 14.3102C10.5885 14.2201 10.5369 14.1285 10.4872 14.0354C10.4378 13.9424 10.3902 13.8481 10.3445 13.7522C10.2991 13.6567 10.2559 13.5597 10.2145 13.4618C10.1731 13.3636 10.1342 13.2644 10.0974 13.1644C10.0603 13.064 10.0256 12.9631 9.99313 12.8609C9.96062 12.7588 9.93026 12.6557 9.90232 12.552C9.87438 12.4481 9.84859 12.3435 9.82522 12.2383C9.80158 12.1331 9.78062 12.0273 9.76181 11.9209C9.74301 11.8146 9.72635 11.7079 9.71238 11.6006C9.69814 11.4933 9.68632 11.3857 9.67692 11.2775C9.66751 11.1696 9.66026 11.0614 9.65569 10.9532C9.65086 10.8446 9.64844 10.7364 9.64844 10.6279C9.64844 10.5194 9.65086 10.4109 9.65569 10.3027C9.66026 10.1942 9.66751 10.0863 9.67692 9.97811C9.68632 9.87021 9.69814 9.76261 9.71238 9.65531C9.72635 9.54801 9.74301 9.44132 9.76181 9.33493C9.78062 9.22854 9.80158 9.12275 9.82522 9.01727C9.84859 8.91209 9.87438 8.80782 9.90232 8.70384C9.93026 8.60017 9.96062 8.49711 9.99313 8.39495C10.0256 8.29279 10.0603 8.19154 10.0974 8.09149C10.1342 7.99115 10.1731 7.89201 10.2145 7.79408C10.2559 7.69585 10.2991 7.59914 10.3445 7.50332C10.3902 7.40781 10.4378 7.31351 10.4872 7.22042C10.5369 7.12733 10.5885 7.03575 10.642 6.94568C10.6957 6.85531 10.7513 6.76675 10.8088 6.67971C10.8663 6.59236 10.9257 6.50712 10.9866 6.4231C11.0479 6.33938 11.111 6.25717 11.1758 6.17677C11.2405 6.09637 11.3072 6.01779 11.3754 5.94132C11.4436 5.86455 11.5135 5.78959 11.585 5.71675C11.6564 5.64391 11.7295 5.57319 11.8039 5.50427C11.8786 5.43566 11.9546 5.36887 12.032 5.30419C12.1097 5.23951 12.1884 5.17725 12.2687 5.1168C12.349 5.05665 12.4304 4.99862 12.5132 4.9427C12.5959 4.88709 12.6798 4.83359 12.7649 4.78251C12.8501 4.73143 12.9363 4.68247 13.0234 4.63623C13.1107 4.58998 13.1988 4.54585 13.288 4.50445C13.3772 4.46304 13.4672 4.42375 13.558 4.38718C13.6488 4.35091 13.7404 4.31675 13.8329 4.28532C13.925 4.25389 14.018 4.22487 14.1117 4.19858C14.2052 4.17228 14.2995 4.1484 14.3941 4.12725C14.4887 4.10609 14.5838 4.08765 14.6791 4.07163C14.7745 4.05561 14.8704 4.04231 14.9663 4.03174C15.0623 4.02116 15.1587 4.0133 15.2549 4.00786C15.3513 4.00242 15.4478 4 15.5442 4C15.6407 4 15.7371 4.00242 15.8336 4.00786C15.9298 4.0133 16.0262 4.02116 16.1221 4.03174C16.218 4.04231 16.314 4.05561 16.4093 4.07163C16.5047 4.08765 16.5998 4.10609 16.6944 4.12725C16.7889 4.1484 16.8832 4.17228 16.9767 4.19858C17.0705 4.22487 17.1635 4.25389 17.2556 4.28532C17.348 4.31675 17.4396 4.35091 17.5305 4.38718C17.6213 4.42375 17.7113 4.46304 17.8005 4.50445C17.8897 4.54585 17.9778 4.58998 18.0651 4.63623C18.1521 4.68247 18.2384 4.73143 18.3235 4.78251C18.4084 4.83359 18.4925 4.88709 18.5753 4.9427C18.658 4.99862 18.7394 5.05665 18.8198 5.1168C18.9001 5.17725 18.9788 5.23951 19.0565 5.30419C19.1338 5.36887 19.2099 5.43566 19.2846 5.50427C19.359 5.57319 19.432 5.64391 19.5035 5.71675C19.575 5.78959 19.6448 5.86455 19.7131 5.94132C19.7813 6.01779 19.8479 6.09637 19.9127 6.17677C19.9774 6.25717 20.0406 6.33938 20.1018 6.4231C20.1628 6.50712 20.2222 6.59236 20.2797 6.67971C20.3372 6.76675 20.3928 6.85531 20.4465 6.94568C20.5 7.03575 20.5516 7.12733 20.6013 7.22042C20.6507 7.31351 20.6983 7.40781 20.7439 7.50332C20.7893 7.59914 20.8326 7.69585 20.874 7.79408C20.9153 7.89201 20.9543 7.99115 20.9911 8.09149C21.0282 8.19154 21.0628 8.29279 21.0953 8.39495C21.1278 8.49711 21.1582 8.60017 21.1861 8.70384C21.2141 8.80782 21.2399 8.91209 21.2632 9.01757C21.2869 9.12275 21.3078 9.22854 21.3267 9.33493C21.3455 9.44132 21.3621 9.54801 21.3761 9.65531C21.3903 9.76261 21.4021 9.87021 21.4116 9.97811C21.421 10.0863 21.4282 10.1942 21.4328 10.3027C21.4376 10.4109 21.44 10.5194 21.44 10.6279Z" fill="#A9A9A9"/>
</g>
</svg>
