<svg width="24" height="24" viewBox="0 0 24 24" fill="none" xmlns="http://www.w3.org/2000/svg">
<mask id="mask0_183_3102" style="mask-type:luminance" maskUnits="userSpaceOnUse" x="0" y="0" width="24" height="24">
<path d="M0 0H23.8521V23.8521H0V0Z" fill="white"/>
</mask>
<g mask="url(#mask0_183_3102)">
<path d="M6.9831 0.0820671C5.71489 0.14191 4.84831 0.345607 4.09107 0.64137C3.30735 0.94749 2.64333 1.35603 1.98275 2.02006C1.32102 2.68409 0.913631 3.34927 0.612114 4.13414C0.318653 4.89368 0.11956 5.76026 0.0631689 7.02962C0.00792916 8.30014 -0.00473017 8.70638 0.00102419 11.9437C0.00677826 15.1809 0.0205883 15.5872 0.0815822 16.8588C0.142576 18.1282 0.343971 18.9925 0.640885 19.7509C0.947005 20.5357 1.35555 21.1986 2.01958 21.8604C2.68361 22.5221 3.34878 22.9272 4.13365 23.231C4.89204 23.5245 5.75977 23.7235 7.02798 23.7788C8.29965 23.8352 8.70589 23.8478 11.942 23.8409C15.1805 23.8352 15.5855 23.8202 16.8572 23.7604C18.1266 23.6994 18.9908 23.4957 19.7492 23.1999C20.5341 22.8938 21.1981 22.4864 21.8587 21.8224C22.5193 21.1583 22.9255 20.4932 23.2293 19.7072C23.5217 18.9488 23.7219 18.0822 23.7771 16.814C23.8324 15.5423 23.8462 15.1361 23.8404 11.8988C23.8347 8.66265 23.8186 8.2564 23.7587 6.98474C23.6989 5.71537 23.4963 4.84995 23.1994 4.09155C22.8933 3.30784 22.4848 2.64496 21.8207 1.98324C21.1567 1.32266 20.4927 0.915267 19.7067 0.612599C18.9483 0.319138 18.0817 0.118894 16.8123 0.0648046C15.5407 0.00841408 15.1344 -0.00424503 11.8971 0.00150904C8.66101 0.00726311 8.25477 0.0210732 6.9831 0.0820671ZM7.12235 21.6325C5.96116 21.5819 5.32936 21.3885 4.90816 21.2262C4.35116 21.011 3.95412 20.7521 3.53522 20.3378C3.11747 19.9212 2.85853 19.5242 2.64102 18.9695C2.47761 18.5494 2.28197 17.9188 2.22673 16.7564C2.16688 15.4997 2.15307 15.1222 2.14732 11.9391C2.14157 8.75817 2.15307 8.38069 2.20831 7.12284C2.2578 5.96165 2.45229 5.32985 2.6134 4.90979C2.82976 4.35279 3.0864 3.95576 3.503 3.53685C3.9196 3.1191 4.31663 2.86017 4.87248 2.64266C5.29253 2.47809 5.92319 2.2836 7.08437 2.22836C8.34108 2.16852 8.7174 2.15586 11.9006 2.14896C15.0838 2.1432 15.4613 2.15356 16.718 2.20995C17.8803 2.26059 18.5109 2.45277 18.9322 2.61619C19.4892 2.8314 19.8862 3.08803 20.3051 3.50463C20.7228 3.92123 20.9818 4.31712 21.1993 4.87412C21.3627 5.29302 21.5583 5.92482 21.6136 7.08486C21.6734 8.34272 21.6861 8.72019 21.6918 11.9011C21.6976 15.0843 21.6861 15.4617 21.6308 16.7173C21.5814 17.8796 21.388 18.5126 21.2258 18.9326C21.0105 19.4885 20.7528 19.8855 20.3362 20.3044C19.9196 20.721 19.5237 20.98 18.9667 21.1986C18.5478 21.362 17.916 21.5577 16.7559 21.6129C15.4981 21.6728 15.1218 21.6854 11.9374 21.6912C8.75653 21.6969 8.37906 21.6854 7.1212 21.6313M16.8411 5.54965C16.8422 6.33912 17.4844 6.97783 18.2727 6.97553C19.0633 6.97438 19.7021 6.33337 19.7009 5.5439C19.6998 4.75328 19.0576 4.11457 18.2681 4.11572C17.4775 4.11687 16.8388 4.75904 16.8399 5.5485M5.7989 11.9333C5.8058 15.3133 8.55168 18.0477 11.9317 18.0408C15.3116 18.035 18.0472 15.2903 18.0403 11.9091C18.0345 8.5303 15.2886 5.79363 11.9075 5.79938C8.52751 5.80629 5.79199 8.55217 5.7989 11.9333ZM7.94634 11.9287C7.94289 9.73407 9.71747 7.95143 11.9121 7.94798C14.1067 7.94338 15.8894 9.71796 15.894 11.9137C15.8986 14.1084 14.1217 15.891 11.9282 15.8945C9.73358 15.8991 7.95095 14.1222 7.94749 11.9287" fill="url(#paint0_linear_183_3102)"/>
</g>
<defs>
<linearGradient id="paint0_linear_183_3102" x1="23.8416" y1="0.000245087" x2="5.50257" y2="27.4607" gradientUnits="userSpaceOnUse">
<stop offset="0.0337487" stop-color="#78D160"/>
<stop offset="0.290476" stop-color="#508243"/>
<stop offset="0.662677" stop-color="#305426"/>
<stop offset="1" stop-color="#13210F"/>
</linearGradient>
</defs>
</svg>
