<svg width="36" height="24" viewBox="0 0 36 24" fill="none" xmlns="http://www.w3.org/2000/svg">
<mask id="mask0_183_3097" style="mask-type:luminance" maskUnits="userSpaceOnUse" x="0" y="0" width="36" height="24">
<path d="M0 0H35.5891V23.8395H0V0Z" fill="white"/>
</mask>
<g mask="url(#mask0_183_3097)">
<path d="M12.3851 6.8946C12.3851 6.66235 12.4158 6.22664 12.9721 5.90437C13.4672 5.6163 14.4628 5.39125 15.0714 5.72793L24.0015 10.5675C24.4588 10.8285 24.9521 11.3813 24.9467 11.979C24.9413 12.3679 24.7307 12.7136 24.3796 12.9044L24.3562 12.9188L15.0534 17.5081C14.8445 17.6144 14.6015 17.6594 14.335 17.6594C13.8111 17.6594 13.2746 17.4901 12.9523 17.2993C12.4122 16.977 12.3851 16.5485 12.3851 16.3216V6.8946ZM7.30974 23.833H28.0921C32.1376 23.833 35.5891 20.333 35.5891 16.3054V6.67135C35.5891 2.64199 32.1376 0.00976562 28.0921 0.00976562H7.30974C3.26598 0.00976562 0 2.64199 0 6.67135V16.3054C0 20.333 3.26598 23.833 7.30974 23.833Z" fill="url(#paint0_linear_183_3097)"/>
</g>
<defs>
<linearGradient id="paint0_linear_183_3097" x1="35.5891" y1="0.00976657" x2="20.8065" y2="33.0774" gradientUnits="userSpaceOnUse">
<stop offset="0.0337487" stop-color="#78D160"/>
<stop offset="0.290476" stop-color="#508243"/>
<stop offset="0.662677" stop-color="#305426"/>
<stop offset="1" stop-color="#13210F"/>
</linearGradient>
</defs>
</svg>
